<?xml version="1.0" encoding="utf-8"?>
<!-- Generator: Adobe Illustrator 26.0.0, SVG Export Plug-In . SVG Version: 6.00 Build 0)  -->
<svg version="1.1" xmlns="http://www.w3.org/2000/svg" xmlns:xlink="http://www.w3.org/1999/xlink" x="0px" y="0px"
	 viewBox="0 0 1280 720" style="enable-background:new 0 0 1280 720;" xml:space="preserve">
<style type="text/css">
	.st0{opacity:0.69;fill:#012030;stroke:#F2E7DC;stroke-miterlimit:10;}
	.st1{fill:#012030;stroke:#F2E7DC;stroke-miterlimit:10;}
	.st2{fill:#F2E7DC;stroke:#F2E7DC;stroke-miterlimit:10;}
	.st3{fill:#390D02;}
	.st4{fill:#F2E7DC;}
	.st5{fill:#390D02;stroke:#F2E7DC;stroke-width:0.75;stroke-miterlimit:10;}
	.st6{fill:#D8B08C;}
	.st7{font-family:'Bauhaus93';}
	.st8{font-size:148.4173px;}
	.st9{opacity:0.65;fill:#012030;}
	.st10{fill:#012030;}
</style>
<g id="Capa_1">
	<polygon class="st0" points="221.5,550.5 245.5,550.5 263.5,537.5 266.5,524.31 216.59,524.31 	"/>
	<polygon class="st0" points="426.5,550.5 401.62,550.5 382.52,537.41 379.52,524.31 430.5,523.31 	"/>
	<polygon class="st1" points="261.49,524 379.29,524 396.17,524 394.17,505.34 255,505.34 255,524 	"/>
	<polygon class="st1" points="379.52,486.38 394.17,505.34 257.1,505.34 270.03,486.38 	"/>
	<path class="st1" d="M270.5,486.5h105.21c2.43,0,5.65-1.91,4.82-4.19c-5.59-15.44,0.09-54.91,8.97-70.81
		c9.86-17.66-35.06-24.69-51.83-13.57c-7.58,5.03-17.21,5.54-25.5,1.8c-12.39-5.6-29.88-8-47.17,8.23
		c-2.25,2.11-3.42,5.13-3.25,8.21l5.24,14.39c3.11,6.17,7.55,14.13,6.51,20.96C271.35,465.6,266.42,486.5,270.5,486.5z"/>
	<path class="st1" d="M195.46,461.96l21.04-39.46c0,0,26.5-28.68,45.25-6.34c18.75,22.34,8.75,70.34,8.75,70.34l-13.4,18.84
		l-5.6-48.84L195.46,461.96z"/>
	<path class="st1" d="M460.64,456.49l-14.43-39.85c0,0-21.91-28.86-55.31-9c-20.31,12.07-8.47,86.52-11.38,78.74l13.98,19.12
		L460.64,456.49z"/>
	<path class="st1" d="M395.17,523.5h35.34c0,0-7.69-39.9,16.32-41.3c5.63-0.33,10.73-3.59,13.18-8.67
		c3.34-6.93,4.67-16.7-6.52-25.36c-20-15.48-63,0.43-63,23.52C390.5,492.6,390.4,491.85,395.17,523.5z"/>
	<path class="st1" d="M254.5,523.5c0,0,9.1-49.53-4-67c-9-12-40.7-11.01-52.52,1.01c-5.09,5.18-9.72,14.8-6.48,20.99
		c3.88,7.4,15.77,3.6,23,11c4.29,4.4,2,35,2,35l37.57-0.33L254.5,523.5z"/>
	<polygon class="st1" points="400.62,550.5 395.17,523.5 430.52,523.5 426.5,550.5 	"/>
	<path class="st2" d="M352,462.5L352,462.5c-2.49,0-4.5-2.01-4.5-4.5l0,0c0-2.49,2.01-4.5,4.5-4.5l0,0c2.49,0,4.5,2.01,4.5,4.5l0,0
		C356.5,460.49,354.49,462.5,352,462.5z"/>
	<path class="st2" d="M353,427.5L353,427.5c-2.49,0-4.5-2.01-4.5-4.5l0,0c0-2.49,2.01-4.5,4.5-4.5l0,0c2.49,0,4.5,2.01,4.5,4.5l0,0
		C357.5,425.49,355.49,427.5,353,427.5z"/>
	<path class="st2" d="M301.86,427.59L301.86,427.59c-2.49,0-4.5-2.01-4.5-4.5l0,0c0-2.49,2.01-4.5,4.5-4.5l0,0
		c2.49,0,4.5,2.01,4.5,4.5l0,0C306.36,425.57,304.35,427.59,301.86,427.59z"/>
	<path class="st2" d="M302.86,462.59L302.86,462.59c-2.49,0-4.5-2.01-4.5-4.5l0,0c0-2.49,2.01-4.5,4.5-4.5l0,0
		c2.49,0,4.5,2.01,4.5,4.5l0,0C307.36,460.57,305.35,462.59,302.86,462.59z"/>
	<polygon class="st1" points="245.91,550.5 254,524 216.5,524 221.75,550.5 	"/>
</g>
<g id="S">
	<g>
		<path class="st3" d="M716.66,539.62c4.87-10.46,15.5-15.79,17.25-16.61c4.5,5.09,9.56,7.67,15.04,7.67c0,0,0,0,0,0
			c8.61,0,15.58-6.52,16.77-7.69c12.53,4.74,16.12,14.42,16.79,16.63H716.66z"/>
		<path class="st4" d="M765.81,523.43c11.44,4.42,15.22,13.01,16.18,15.82h-64.73c4.72-9.57,14.3-14.67,16.56-15.77
			c4.53,5.03,9.62,7.58,15.13,7.58C757.47,531.06,764.2,525.01,765.81,523.43 M765.62,522.56c0,0-7.31,7.75-16.67,7.75
			c-4.68,0-9.88-1.94-14.94-7.75c0,0-12.66,5.45-17.93,17.44H783C783,540,780.33,528.01,765.62,522.56L765.62,522.56z"/>
	</g>
	<g>
		<path class="st3" d="M748.34,530.54c-5.03,0-9.47-2.04-13.2-6.05c-0.61-0.66-0.88-1.57-0.78-2.57c0.14-1.3,0.89-2.58,1.97-3.34
			l0.09-0.06c2.96-2.03,8.21-4.2,14.09-4.2c4.07,0,7.73,1.05,10.89,3.11c1.13,0.74,3.24,4.1,3.88,5.31
			c0.51,0.96,0.15,1.21-1.16,1.93c-0.43,0.24-0.92,0.51-1.4,0.86C760.62,527.03,754.99,530.54,748.34,530.54z"/>
		<path class="st4" d="M750.51,514.69L750.51,514.69c3.99,0,7.59,1.03,10.69,3.05c0.99,0.65,3,3.76,3.76,5.18
			c0.32,0.6,0.36,0.67-1.01,1.43c-0.44,0.24-0.93,0.52-1.44,0.88c-2.08,1.49-7.63,4.94-14.17,4.94c-4.92,0-9.27-2-12.92-5.93
			c-0.53-0.57-0.78-1.38-0.68-2.28c0.12-1.2,0.82-2.37,1.81-3.07l0.08-0.06C739.41,516.91,744.71,514.69,750.51,514.69
			 M750.51,513.94c-5.78,0-11.17,2.12-14.3,4.26c-0.03,0.02-0.06,0.04-0.09,0.06c-2.11,1.49-2.93,4.66-1.25,6.48
			c4.26,4.59,9.01,6.17,13.47,6.17c5.98,0,11.47-2.84,14.6-5.08c1.8-1.29,3.63-1.48,2.67-3.27c-0.61-1.14-2.77-4.64-4.01-5.45
			C758.09,514.81,754.23,513.94,750.51,513.94L750.51,513.94z"/>
	</g>
	<g>
		<path class="st3" d="M746.23,551.1c-11.04,0-24.97-8.26-28.88-10.72h64.64c-10.71,9.1-21.33,10.48-26.78,10.48c0,0,0,0,0,0
			c-2.62,0-4.2-0.32-4.22-0.32l-0.09-0.02l-0.08,0.02C749.43,550.91,747.89,551.1,746.23,551.1z"/>
		<path class="st4" d="M718.67,540.75l62.29,0c-10.35,8.43-20.48,9.73-25.75,9.73c-2.57,0-4.13-0.31-4.14-0.31l-0.17-0.03
			l-0.17,0.05c-1.35,0.36-2.87,0.55-4.49,0.55C736.16,550.72,723.63,543.77,718.67,540.75 M716.08,540c0,0,16.96,11.47,30.15,11.47
			c1.63,0,3.21-0.18,4.69-0.57c0,0,1.6,0.33,4.29,0.33c5.84,0,16.81-1.53,27.79-11.23L716.08,540L716.08,540z"/>
	</g>
	<g>
		<path class="st3" d="M749.51,520.58c-1.39,0-1.98-2.18-2.07-2.54c0.19-2.3,0.41-4.5,0.62-6.6c0.66-6.71,1.23-12.5,0.56-17.26
			c-2.18-15.37-9.21-20.74-9.5-20.96c-2.64-2.15-28.33-19.96-29.42-20.72c-14.75-10.75-13.23-32.15-13.21-32.36
			c-2.62-13.97,7.87-32.36,7.97-32.54c9.28-9.44,18.19-14.26,26.42-14.26c13.56,0,20.95,13.28,21.59,14.48
			c-0.31,5.86-1.24,6.03-1.35,6.03c-0.8,0-2.3-3.13-3.23-6.04c-3.86-6.48-9.2-9.72-15.89-9.72c-11.28,0-22.66,9.45-22.77,9.55
			l-0.05,0.04l-0.03,0.06c-19.95,36.3-0.15,58.56,0.05,58.78c4.91,4.01,10.35,7.63,16.11,11.47c3.84,2.56,7.81,5.2,12.02,8.2
			c4.51,3.22,8.26,7.81,10.57,12.93c1.75,3.88,2.61,7.66,3.24,10.43c0.29,1.29,0.52,2.3,0.76,2.95c1.24,3.34,0.09,24.73-0.02,26.64
			C750.98,520.09,750.18,520.58,749.51,520.58L749.51,520.58z"/>
		<path class="st4" d="M730.88,373.7c13.06,0,20.33,12.57,21.21,14.19c-0.24,4.42-0.82,5.36-1,5.55c-0.63-0.32-1.95-2.99-2.84-5.76
			l-0.03-0.08l-0.04-0.07c-3.9-6.52-9.34-9.83-16.17-9.83c-11.42,0-22.54,9.24-23.01,9.64l-0.11,0.09l-0.07,0.12
			c-10.48,19.06-9.91,34.12-7.59,43.4c2.52,10.1,7.48,15.59,7.69,15.82l0.04,0.04l0.04,0.03c4.89,3.98,10.33,7.61,16.1,11.45
			c3.84,2.55,7.8,5.2,12.01,8.2c4.46,3.18,8.17,7.72,10.45,12.78c1.73,3.84,2.59,7.61,3.21,10.36c0.3,1.3,0.53,2.32,0.78,2.99
			c1.04,2.79,0.34,19.7-0.03,26.35c-0.98,1.01-1.63,1.23-2.01,1.23c-0.94,0-1.52-1.53-1.69-2.2c0.19-2.28,0.41-4.45,0.61-6.55
			c0.66-6.73,1.24-12.54,0.55-17.35c-2.21-15.52-9.35-20.98-9.63-21.19c-2.67-2.17-28.36-19.99-29.44-20.73
			c-14.57-10.63-13.08-31.82-13.06-32.04l0.01-0.1l-0.02-0.1c-2.5-13.26,7.13-30.77,7.89-32.11
			C713.97,378.46,722.77,373.7,730.88,373.7 M730.88,372.95c-7.19,0-16.12,3.62-26.75,14.45c0,0-10.69,18.53-8.02,32.7
			c0,0-1.73,21.69,13.37,32.7c0,0,26.74,18.53,29.41,20.71c0,0,7.17,5.32,9.36,20.71c0.88,6.2-0.37,14.1-1.18,23.84
			c0,0,0.61,2.89,2.45,2.89c0.72,0,1.62-0.44,2.74-1.66c0,0,1.34-23.34,0-26.93c-0.73-1.95-1.42-7.65-4.01-13.4
			c-2.17-4.83-5.81-9.6-10.69-13.08c-10.69-7.63-20.05-13.08-28.07-19.62c0,0-20.05-21.86,0-58.35c0,0,11.25-9.46,22.53-9.46
			c5.64,0,11.28,2.36,15.53,9.46c0,0,2.01,6.3,3.58,6.3c0.8,0,1.48-1.62,1.73-6.49C752.85,387.72,745.41,372.95,730.88,372.95
			L730.88,372.95z"/>
	</g>
	<g>
		<path class="st3" d="M750.34,404.46c-2.19,0-3.96-1.54-4.41-3.02c-0.18-0.61-0.16-1.28,0.08-1.92c0.61-1.65,2.55-2.39,4.2-2.39
			c1.75,0,3.26,0.75,3.94,1.96c0.25,0.45,0.39,0.91,0.41,1.39c0.08,1.69-1.31,3.68-3.68,3.95
			C750.69,404.45,750.51,404.46,750.34,404.46L750.34,404.46z"/>
		<path class="st4" d="M750.21,397.51c1.61,0,3,0.68,3.61,1.77c0.22,0.4,0.34,0.81,0.36,1.22c0.07,1.52-1.19,3.31-3.35,3.56
			c-0.16,0.02-0.33,0.03-0.5,0.03c-2.01,0-3.64-1.4-4.05-2.76c-0.16-0.53-0.14-1.12,0.07-1.68
			C746.9,398.17,748.68,397.51,750.21,397.51 M750.21,396.76c-1.96,0-3.92,0.9-4.55,2.63c-0.26,0.71-0.3,1.45-0.09,2.16
			c0.5,1.66,2.43,3.29,4.77,3.29c0.19,0,0.39-0.01,0.58-0.03c2.59-0.3,4.09-2.49,4.01-4.34c-0.02-0.54-0.18-1.06-0.46-1.55
			C753.66,397.46,751.93,396.76,750.21,396.76L750.21,396.76z"/>
	</g>
	<path class="st5" d="M748.13,394.2c0.39-0.7,1.19-3.09,2.12-2.99c0.52,0.06,1.23,2.24,1.43,2.64c0.31,0.63-0.31,1.31-0.97,1.73
		c-0.66,0.42-3.69,1.72-1.8,3.26c2.67,2.18,5.98-2.9,6.68-3.27"/>
	<g>
		<path class="st3" d="M751.85,411.77c-4.68-0.09-12.42-0.77-13.32-2.23c-0.57-0.93-0.73-1.77-0.47-2.49
			c0.45-1.28,2.03-1.85,2.05-1.86l0.05-0.02l0.05-0.04c0.02-0.02,2.23-1.69,4.09-1.69c0.36,0,0.69,0.07,0.97,0.2
			c0.69,0.32,1.92,0.48,3.75,0.48c2.76,0,6.03-0.37,6.55-0.44c1.67,0.44,5.9,1.82,6.44,3.16c0.08,0.19,0.06,0.35-0.05,0.53
			l-0.14,0.23l0.18,0.21c0.01,0.02,0.41,0.5,0.16,1.09C761.79,409.75,759.96,411.26,751.85,411.77z"/>
		<path class="st4" d="M744.3,403.82L744.3,403.82c0.31,0,0.58,0.05,0.81,0.16c0.74,0.34,2.02,0.51,3.9,0.51
			c2.72,0,5.82-0.35,6.52-0.43c2.69,0.71,5.75,2.02,6.12,2.92c0.03,0.07,0.03,0.11-0.02,0.19l-0.27,0.46l0.33,0.41
			c0.03,0.03,0.26,0.35,0.1,0.72c-0.21,0.48-1.56,2.1-9.96,2.64c-5.71-0.11-12.3-0.92-12.99-2.05c-0.51-0.83-0.65-1.56-0.44-2.17
			c0.39-1.1,1.81-1.63,1.82-1.63l0.11-0.04l0.09-0.07C741.03,404.98,742.87,403.82,744.3,403.82 M744.3,403.07
			c-2.01,0-4.32,1.77-4.32,1.77s-3.92,1.39-1.77,4.91c1.34,2.18,13.64,2.4,13.64,2.4c13.64-0.87,10.42-4.58,10.42-4.58
			c1.34-2.18-6.68-4.26-6.68-4.26s-3.56,0.44-6.58,0.44c-1.51,0-2.87-0.11-3.59-0.44C745.08,403.14,744.7,403.07,744.3,403.07
			L744.3,403.07z"/>
	</g>
	<g>
		<path class="st3" d="M750.01,414.66c-0.94,0-9.25-0.1-12.83-3.46c-1.17-1.09-1.7-2-1.5-2.57c0.18-0.51,0.95-0.76,1.5-0.86
			c0.04,0.42,0.2,0.83,0.5,1.22c2.43,3.16,13.4,4.35,13.86,4.4c7.73-1.18,11.6-2.62,11.92-4.39c0.05-0.28,0.01-0.52-0.08-0.74
			c0.87,0.32,1.48,0.76,1.84,1.33c0.38,0.62,0.34,1.22,0.31,1.42c-3.04,3.38-15.24,3.64-15.36,3.64L750.01,414.66z"/>
		<path class="st4" d="M736.88,408.23c0.09,0.34,0.26,0.67,0.51,0.99c2.49,3.23,12.94,4.41,14.12,4.54l0.1,0.01l0.1-0.01
			c10.41-1.61,11.91-3.45,12.14-4.69c0.01-0.06,0.02-0.13,0.02-0.19c0.46,0.25,0.81,0.54,1.03,0.89c0.28,0.44,0.3,0.87,0.28,1.08
			c-2.55,2.64-11.66,3.38-15.01,3.44l-0.16,0c-0.92,0-9.1-0.09-12.58-3.36c-1.55-1.45-1.44-2.06-1.4-2.17
			C736.12,408.53,736.48,408.34,736.88,408.23 M737.57,407.34c0,0-4.72,0.32-0.65,4.14c3.65,3.42,11.82,3.56,13.09,3.56
			c0.11,0,0.17,0,0.17,0s12.62-0.22,15.7-3.85c0,0,0.74-2.76-3.6-3.62c0,0,5.28,2.98-10.69,5.45
			C751.59,413.01,736.92,411.47,737.57,407.34L737.57,407.34z"/>
	</g>
	<g>
		<path class="st3" d="M750.33,449c-14.03,0-24.1-4.58-25.68-5.34c0.77-13.45,9.32-29.38,10.74-31.93
			c4.11,2.74,9.04,4.13,14.67,4.13c7.63,0,14.25-2.61,15.72-3.24c8.1,13.13,10.11,28.79,10.37,31.03
			C767.87,447.2,759.18,449,750.33,449z"/>
		<path class="st4" d="M735.53,412.26c4.1,2.64,8.99,3.97,14.54,3.97c7.36,0,13.63-2.34,15.57-3.14
			c7.64,12.55,9.75,27.34,10.11,30.32c-8.16,3.45-16.71,5.21-25.42,5.21c-13.39,0-23.16-4.2-25.29-5.19
			C725.87,430.63,733.68,415.65,735.53,412.26 M735.27,411.19c0,0-10.25,17.79-11,32.7c0,0,10.57,5.49,26.06,5.49
			c7.75,0,16.72-1.37,26.23-5.49c0,0-1.62-17.34-10.62-31.74c0,0-7.23,3.34-15.87,3.34C745.23,415.48,739.96,414.44,735.27,411.19
			L735.27,411.19z"/>
	</g>
	<g>
		<path class="st3" d="M753.6,453.93c-8.95,0-18.78-2.01-29.21-5.97c-0.62-0.2-2.36-0.94-2.39-1.77c-0.02-0.33,0.26-1.01,2.25-1.89
			c1.37,0.71,11.15,5.45,25.48,5.45c8.99,0,18-1.83,26.79-5.44c0.65,0.38,1.9,1.31,1.83,2.14c-0.04,0.55-0.71,1.08-1.93,1.52
			l-0.06,0.02l-0.05,0.04C776.24,448.08,768.76,453.93,753.6,453.93z"/>
		<path class="st4" d="M724.24,444.72c1.89,0.96,11.37,5.4,25.5,5.4c8.98,0,17.98-1.82,26.76-5.4c0.72,0.46,1.53,1.2,1.49,1.69
			c-0.03,0.38-0.66,0.82-1.69,1.19l-0.12,0.04l-0.1,0.08c-0.07,0.06-7.48,5.83-22.48,5.83c-8.9,0-18.68-2-29.11-5.96
			c-0.98-0.32-2.1-0.99-2.12-1.43C722.37,445.94,722.76,445.4,724.24,444.72 M776.55,443.89c-9.95,4.11-19.07,5.49-26.82,5.49
			c-15.49,0-25.47-5.49-25.47-5.49c-5.93,2.53,0,4.42,0,4.42c11.84,4.5,21.59,6,29.34,6c15.49,0,22.95-6,22.95-6
			C781.47,446.55,776.55,443.89,776.55,443.89L776.55,443.89z"/>
	</g>
</g>
<g id="letra1">
	<text transform="matrix(0.4512 0 0 1 791.6125 531.5357)" class="st6 st7 st8">ANYO</text>
	<text transform="matrix(0.4512 0 0 1 796.6594 535.9473)" class="st3 st7 st8">ANYO</text>
</g>
<g id="letra2">
	<text transform="matrix(0.4512 0 0 1 466.777 530.9474)" class="st9 st7 st8">UEBLES </text>
	<text transform="matrix(0.4512 0 0 1 471.9302 534.2705)" class="st10 st7 st8">UEBLES </text>
</g>
</svg>
